<svg xmlns="http://www.w3.org/2000/svg" width="256" height="256" fill="none" viewBox="0 0 256 256" id="discord">
  <path fill="#1a237e" d="M111.61 129.375C111.61 130.373 111.243 131.135 110.826 131.592 110.42 132.037 110.058 132.125 109.822 132.125 109.587 132.125 109.225 132.037 108.819 131.592 108.401 131.135 108.035 130.373 108.035 129.375 108.035 128.377 108.401 127.615 108.819 127.158 109.225 126.713 109.587 126.625 109.822 126.625 110.058 126.625 110.42 126.713 110.826 127.158 111.243 127.615 111.61 128.377 111.61 129.375ZM147.855 129.375C147.855 130.373 147.488 131.135 147.071 131.592 146.665 132.037 146.302 132.125 146.067 132.125 145.832 132.125 145.47 132.037 145.064 131.592 144.646 131.135 144.28 130.373 144.28 129.375 144.28 128.377 144.646 127.615 145.064 127.158 145.47 126.713 145.832 126.625 146.067 126.625 146.302 126.625 146.665 126.713 147.071 127.158 147.488 127.615 147.855 128.377 147.855 129.375Z"></path>
  <path fill="#3f51b5" fill-rule="evenodd" d="M30 79C30 64.7674 36.068 51.9521 45.7581 43L86.5888 83.2606C86.5535 83.2764 86.5183 83.2923 86.483 83.3083C85.0948 83.9284 83.7978 84.9525 82.8492 86.3742C67.4705 109.005 63.1582 131.373 65.2404 153.338C65.483 155.941 66.8575 158.046 68.5661 159.361L68.6648 159.437L68.7657 159.51C78.9853 166.895 88.9351 171.402 98.6521 174.374L98.6922 174.386C102.209 175.443 105.834 174.137 107.94 171.456L108.006 171.372L108.069 171.286C109.869 168.868 111.529 166.338 113.028 163.694C122.95 165.754 133.059 165.762 142.944 163.711C144.44 166.322 146.074 168.826 147.823 171.22C150.017 174.228 153.824 175.414 157.245 174.386L157.275 174.377C162.389 172.821 167.555 170.843 172.783 168.251L214.109 209C205.124 219.411 191.831 226 177 226H79C51.938 226 30 204.062 30 177V79Z" clip-rule="evenodd"></path>
  <path fill="#00bcd4" d="M214.109 209C221.519 200.415 226 189.231 226 177V79C226 51.938 204.062 30 177 30H79C66.1706 30 54.4928 34.9305 45.7581 43L86.5888 83.2606C94.1972 79.8363 102.348 77.3149 110.864 75.8716L110.941 75.8585L111.019 75.8469C114.33 75.3501 117.84 76.8251 119.702 79.9697L119.73 80.0178L119.758 80.0662C119.919 80.3475 120.084 80.6409 120.252 80.9437C125.383 80.5155 130.547 80.5177 135.723 80.9477C135.885 80.6511 136.046 80.3609 136.207 80.0801L136.21 80.0749C138.035 76.8849 141.629 75.2707 145.131 75.8755C153.686 77.3309 161.868 79.8689 169.499 83.3126C170.774 83.8849 172.152 84.8852 173.163 86.4413C186.524 105.849 193.227 127.996 190.738 153.365C190.495 155.9 189.157 158.095 187.242 159.49L187.215 159.51C182.347 163.028 177.539 165.893 172.783 168.251L214.109 209Z"></path>
  <path fill="#9900CC" fill-rule="evenodd" d="M143.73 84.0056C143.586 83.9798 143.443 84.0442 143.37 84.1731C142.403 85.8653 141.332 88.0728 140.582 89.808C132.127 88.5625 123.715 88.5625 115.434 89.808C114.684 88.0343 113.574 85.8653 112.603 84.1731C112.529 84.0485 112.386 83.9841 112.243 84.0056C105.859 85.0874 99.6992 86.8298 93.8507 89.1453C93.5435 89.2669 93.2372 89.3901 92.9317 89.5149C91.8951 89.9383 90.8686 90.3798 89.8526 90.8388C89.7919 90.8646 89.7398 90.9076 89.7053 90.9633C75.4447 111.927 71.5381 132.375 73.4546 152.57C73.4632 152.668 73.5196 152.763 73.5977 152.823C83.0064 159.622 92.1203 163.749 101.065 166.485C101.208 166.528 101.36 166.476 101.451 166.36C101.973 165.659 102.481 164.948 102.974 164.228L103.012 164.172C103.616 163.29 104.197 162.394 104.755 161.483C105.135 160.863 105.505 160.236 105.864 159.603L105.873 159.587C106.287 158.856 106.686 158.116 107.07 157.367C107.166 157.182 107.074 156.963 106.879 156.89C106.395 156.709 105.914 156.522 105.437 156.329C104.877 156.102 104.323 155.866 103.772 155.623L103.718 155.599L103.589 155.541L103.424 155.467C103.347 155.433 103.271 155.398 103.194 155.363L102.908 155.232C101.825 154.731 100.759 154.2 99.7098 153.64C99.5534 153.557 99.3973 153.473 99.2417 153.388L99.2233 153.378L98.9601 153.234L98.9523 153.23C98.7338 153.11 98.5159 152.988 98.2988 152.866C98.082 152.741 98.0647 152.436 98.2641 152.29C98.4719 152.137 98.6797 151.982 98.8864 151.824L98.9056 151.81C99.2658 151.536 99.6221 151.257 99.9681 150.976C100.068 150.894 100.207 150.877 100.324 150.929C102.314 151.823 104.322 152.618 106.343 153.314C106.898 153.505 107.453 153.688 108.009 153.864C110.403 154.622 112.817 155.243 115.24 155.725C123.699 157.41 132.288 157.417 140.706 155.747C143.132 155.266 145.544 154.645 147.935 153.884L147.943 153.882C148.498 153.705 149.052 153.521 149.604 153.329C151.623 152.629 153.625 151.829 155.605 150.929C155.722 150.873 155.861 150.89 155.965 150.972C156.315 151.255 156.675 151.539 157.04 151.817C157.249 151.977 157.462 152.135 157.674 152.29C157.873 152.436 157.86 152.741 157.643 152.866C157.421 152.993 157.199 153.119 156.976 153.244L156.764 153.361L156.722 153.385C156.561 153.473 156.399 153.561 156.237 153.648C155.056 154.283 153.854 154.875 152.628 155.425L152.387 155.532L152.265 155.587L152.199 155.615C151.642 155.86 151.08 156.096 150.512 156.324C150.031 156.517 149.547 156.705 149.058 156.886C148.863 156.959 148.776 157.182 148.872 157.367C149.239 158.067 149.618 158.76 150.009 159.446L150.031 159.486C150.417 160.162 150.813 160.831 151.22 161.492C151.775 162.396 152.35 163.285 152.943 164.161L152.982 164.219C153.471 164.941 153.973 165.653 154.487 166.356C154.573 166.476 154.729 166.528 154.873 166.485C163.861 163.749 172.975 159.622 182.383 152.823C182.466 152.763 182.518 152.673 182.526 152.574C184.82 129.227 178.685 108.946 166.263 90.9676C166.232 90.9076 166.18 90.8646 166.12 90.8388C159.109 87.6734 151.59 85.3413 143.73 84.0056ZM119.86 129.375C119.86 135.45 115.366 140.375 109.822 140.375C104.279 140.375 99.785 135.45 99.785 129.375C99.785 123.3 104.279 118.375 109.822 118.375C115.366 118.375 119.86 123.3 119.86 129.375ZM146.067 140.375C151.611 140.375 156.105 135.45 156.105 129.375C156.105 123.3 151.611 118.375 146.067 118.375C140.524 118.375 136.03 123.3 136.03 129.375C136.03 130.419 136.163 131.43 136.411 132.387C136.433 132.474 136.457 132.56 136.481 132.646C137.587 136.542 140.615 139.509 144.349 140.215C144.371 140.219 144.393 140.223 144.414 140.227C144.952 140.324 145.504 140.375 146.067 140.375Z" clip-rule="evenodd"></path>
  <path fill="#D100FF" fill-rule="evenodd" d="M110.826 131.592C111.243 131.135 111.61 130.373 111.61 129.375C111.61 128.377 111.243 127.615 110.826 127.158C110.42 126.713 110.058 126.625 109.822 126.625C109.587 126.625 109.225 126.713 108.819 127.158C108.401 127.615 108.035 128.377 108.035 129.375C108.035 130.373 108.401 131.135 108.819 131.592C109.225 132.037 109.587 132.125 109.822 132.125C110.058 132.125 110.42 132.037 110.826 131.592Z" clip-rule="evenodd"></path>
</svg>
