<svg xmlns="http://www.w3.org/2000/svg" width="24" height="24" fill="none" id="direct-message">
  <path fill="#000" fill-rule="evenodd" d="M20.854 3.146a.5.5 0 0 1 .108.544l-7 17a.5.5 0 0 1-.947-.069l-1.927-7.709-7.71-1.927a.5.5 0 0 1-.068-.947l17-7a.5.5 0 0 1 .544.108ZM5.096 10.384l6.525 1.63a.5.5 0 0 1 .364.365l1.631 6.525L19.581 4.42 5.096 10.384Z" clip-rule="evenodd"></path>
  <path fill="#000" fill-rule="evenodd" d="M20.854 3.146a.5.5 0 0 1 0 .708l-9 9a.5.5 0 0 1-.708-.708l9-9a.5.5 0 0 1 .708 0Z" clip-rule="evenodd"></path>
</svg>
